# xmcd
#
# Track frame offsets: 
#        150
#        17061
#        35758
#        51042
#        71541
#        86812
#        103504
#        120289
#        137343
#        155734
#        173844
#
# Disc length: 2540 seconds
#
# Revision: 2
# Processed by: cddbd v1.5.2PL0 Copyright (c) Steve Scherf et al.
# Submitted via: ExactAudioCopy v0.99pb4
#
DISCID=8a09ea0b
DTITLE=張敬軒 - 笑忘書
DYEAR=2006
DGENRE=(13)Pop
TTITLE0=01 餘震
TTITLE1=02 騷靈情歌
TTITLE2=03 兩座位跑車
TTITLE3=04 笑忘書
TTITLE4=05 無需要太多
TTITLE5=06 老了十歲
TTITLE6=07 病況
TTITLE7=08 第二次愛你
TTITLE8=09 不能不見
TTITLE9=10 從何唱起
TTITLE10=11 遇見神
EXTD=
EXTT0=
EXTT1=
EXTT2=
EXTT3=
EXTT4=
EXTT5=
EXTT6=
EXTT7=
EXTT8=
EXTT9=
EXTT10=
PLAYORDER=
